<!DOCTYPE svg PUBLIC "-//W3C//DTD SVG 1.1//EN" "http://www.w3.org/Graphics/SVG/1.1/DTD/svg11.dtd">
<!-- Uploaded to: SVG Repo, www.svgrepo.com, Transformed by: SVG Repo Mixer Tools -->
<svg fill="#00FFFF" width="800px" height="800px" viewBox="0 0 16 16" xmlns="http://www.w3.org/2000/svg">
<g id="SVGRepo_bgCarrier" stroke-width="0"/>
<g id="SVGRepo_tracerCarrier" stroke-linecap="round" stroke-linejoin="round"/>
<g id="SVGRepo_iconCarrier">
<path d="M2.5 14.75h11V16h-11zm.39-5.45 4.27 3.88a1.26 1.26 0 0 0 1.68 0l4.27-3.88a1.25 1.25 0 0 0-.84-2.18H9.8V1.25A1.25 1.25 0 0 0 8.55 0h-1.1A1.25 1.25 0 0 0 6.2 1.25v5.87H3.73a1.25 1.25 0 0 0-.84 2.18zm.84-.93h3.72V1.25h1.1v7.12h3.72L8 12.25 3.73 8.37z"/>
</g>
</svg>