<svg id="visual" viewBox="0 0 900 300" width="900" height="300" xmlns="http://www.w3.org/2000/svg" xmlns:xlink="http://www.w3.org/1999/xlink" version="1.1"><rect x="0" y="0" width="900" height="300" fill="#ffffff"></rect><path d="M0 236L21.5 228.7C43 221.3 86 206.7 128.8 206.5C171.7 206.3 214.3 220.7 257.2 229.8C300 239 343 243 385.8 240.2C428.7 237.3 471.3 227.7 514.2 223.2C557 218.7 600 219.3 642.8 210.7C685.7 202 728.3 184 771.2 177.2C814 170.3 857 174.7 878.5 176.8L900 179L900 0L878.5 0C857 0 814 0 771.2 0C728.3 0 685.7 0 642.8 0C600 0 557 0 514.2 0C471.3 0 428.7 0 385.8 0C343 0 300 0 257.2 0C214.3 0 171.7 0 128.8 0C86 0 43 0 21.5 0L0 0Z" fill="#b0c4de"></path><path d="M0 169L21.5 175.2C43 181.3 86 193.7 128.8 194.8C171.7 196 214.3 186 257.2 176.2C300 166.3 343 156.7 385.8 152.7C428.7 148.7 471.3 150.3 514.2 154C557 157.7 600 163.3 642.8 169.7C685.7 176 728.3 183 771.2 188.3C814 193.7 857 197.3 878.5 199.2L900 201L900 0L878.5 0C857 0 814 0 771.2 0C728.3 0 685.7 0 642.8 0C600 0 557 0 514.2 0C471.3 0 428.7 0 385.8 0C343 0 300 0 257.2 0C214.3 0 171.7 0 128.8 0C86 0 43 0 21.5 0L0 0Z" fill="#98b3d3"></path><path d="M0 124L21.5 120.8C43 117.7 86 111.3 128.8 114.7C171.7 118 214.3 131 257.2 137.8C300 144.7 343 145.3 385.8 144C428.7 142.7 471.3 139.3 514.2 142.3C557 145.3 600 154.7 642.8 153C685.7 151.3 728.3 138.7 771.2 132.8C814 127 857 128 878.5 128.5L900 129L900 0L878.5 0C857 0 814 0 771.2 0C728.3 0 685.7 0 642.8 0C600 0 557 0 514.2 0C471.3 0 428.7 0 385.8 0C343 0 300 0 257.2 0C214.3 0 171.7 0 128.8 0C86 0 43 0 21.5 0L0 0Z" fill="#7fa2c9"></path><path d="M0 84L21.5 84.7C43 85.3 86 86.7 128.8 88.2C171.7 89.7 214.3 91.3 257.2 95.3C300 99.3 343 105.7 385.8 102C428.7 98.3 471.3 84.7 514.2 85C557 85.3 600 99.7 642.8 102.5C685.7 105.3 728.3 96.7 771.2 92.3C814 88 857 88 878.5 88L900 88L900 0L878.5 0C857 0 814 0 771.2 0C728.3 0 685.7 0 642.8 0C600 0 557 0 514.2 0C471.3 0 428.7 0 385.8 0C343 0 300 0 257.2 0C214.3 0 171.7 0 128.8 0C86 0 43 0 21.5 0L0 0Z" fill="#6492bf"></path><path d="M0 32L21.5 34.2C43 36.3 86 40.7 128.8 42.5C171.7 44.3 214.3 43.7 257.2 41.8C300 40 343 37 385.8 38.2C428.7 39.3 471.3 44.7 514.2 44.8C557 45 600 40 642.8 38.5C685.7 37 728.3 39 771.2 42.3C814 45.7 857 50.3 878.5 52.7L900 55L900 0L878.5 0C857 0 814 0 771.2 0C728.3 0 685.7 0 642.8 0C600 0 557 0 514.2 0C471.3 0 428.7 0 385.8 0C343 0 300 0 257.2 0C214.3 0 171.7 0 128.8 0C86 0 43 0 21.5 0L0 0Z" fill="#4682b4"></path></svg>