<svg id="visual" viewBox="0 0 900 200" width="900" height="200" xmlns="http://www.w3.org/2000/svg" xmlns:xlink="http://www.w3.org/1999/xlink" version="1.1"><rect x="0" y="0" width="900" height="200" fill="#191970"></rect><path d="M0 173L30 177C60 181 120 189 180 185.2C240 181.3 300 165.7 360 149.7C420 133.7 480 117.3 540 94.2C600 71 660 41 720 46.5C780 52 840 93 870 113.5L900 134L900 201L870 201C840 201 780 201 720 201C660 201 600 201 540 201C480 201 420 201 360 201C300 201 240 201 180 201C120 201 60 201 30 201L0 201Z" fill="#667f9d" stroke-linecap="round" stroke-linejoin="miter"></path></svg>