<svg id="visual" viewBox="0 0 900 200" width="900" height="200" xmlns="http://www.w3.org/2000/svg" xmlns:xlink="http://www.w3.org/1999/xlink" version="1.1"><rect x="0" y="0" width="900" height="200" fill="#191970"></rect><path d="M0 155L18.8 159.8C37.7 164.7 75.3 174.3 112.8 174.7C150.3 175 187.7 166 225.2 143.3C262.7 120.7 300.3 84.3 337.8 63C375.3 41.7 412.7 35.3 450.2 58.8C487.7 82.3 525.3 135.7 562.8 160.5C600.3 185.3 637.7 181.7 675.2 170.2C712.7 158.7 750.3 139.3 787.8 129.7C825.3 120 862.7 120 881.3 120L900 120L900 201L881.3 201C862.7 201 825.3 201 787.8 201C750.3 201 712.7 201 675.2 201C637.7 201 600.3 201 562.8 201C525.3 201 487.7 201 450.2 201C412.7 201 375.3 201 337.8 201C300.3 201 262.7 201 225.2 201C187.7 201 150.3 201 112.8 201C75.3 201 37.7 201 18.8 201L0 201Z" fill="#f0ffff" stroke-linecap="round" stroke-linejoin="miter"></path></svg>