<svg id="visual" viewBox="0 0 900 200" width="900" height="200" xmlns="http://www.w3.org/2000/svg" xmlns:xlink="http://www.w3.org/1999/xlink" version="1.1"><rect x="0" y="0" width="900" height="200" fill="#4682B4"></rect><path d="M0 100L21.5 106C43 112 86 124 128.8 112C171.7 100 214.3 64 257.2 66C300 68 343 108 385.8 120.2C428.7 132.3 471.3 116.7 514.2 92.7C557 68.7 600 36.3 642.8 22C685.7 7.7 728.3 11.3 771.2 31.8C814 52.3 857 89.7 878.5 108.3L900 127L900 201L878.5 201C857 201 814 201 771.2 201C728.3 201 685.7 201 642.8 201C600 201 557 201 514.2 201C471.3 201 428.7 201 385.8 201C343 201 300 201 257.2 201C214.3 201 171.7 201 128.8 201C86 201 43 201 21.5 201L0 201Z" fill="#97b8f3" stroke-linecap="round" stroke-linejoin="miter"></path></svg>