<svg id="visual" viewBox="0 0 900 200" width="900" height="200" xmlns="http://www.w3.org/2000/svg" xmlns:xlink="http://www.w3.org/1999/xlink" version="1.1"><rect x="0" y="0" width="900" height="200" fill="#191970"></rect><path d="M0 159L21.5 152.2C43 145.3 86 131.7 128.8 110.8C171.7 90 214.3 62 257.2 50.5C300 39 343 44 385.8 64C428.7 84 471.3 119 514.2 138.3C557 157.7 600 161.3 642.8 150.3C685.7 139.3 728.3 113.7 771.2 95.8C814 78 857 68 878.5 63L900 58L900 201L878.5 201C857 201 814 201 771.2 201C728.3 201 685.7 201 642.8 201C600 201 557 201 514.2 201C471.3 201 428.7 201 385.8 201C343 201 300 201 257.2 201C214.3 201 171.7 201 128.8 201C86 201 43 201 21.5 201L0 201Z" fill="#151b46" stroke-linecap="round" stroke-linejoin="miter"></path></svg>